<svg xmlns="http://www.w3.org/2000/svg" viewBox="0 0 400 340" fill="none">
  <ellipse cx="200" cy="300" rx="150" ry="26" fill="#0F2438" opacity="0.4"/>
  <path d="M40 200 C40 90 110 30 200 30 C290 30 360 90 360 200 C360 255 300 285 200 285 C100 285 40 255 40 200Z" fill="#3F7FA6"/>
  <path d="M40 200 C40 255 100 285 200 285 C300 285 360 255 360 200 C360 228 290 250 200 250 C110 250 40 228 40 200Z" fill="#F2E8D5"/>
  <ellipse cx="150" cy="150" rx="8" ry="10" fill="#173D58"/>
  <ellipse cx="250" cy="150" rx="8" ry="10" fill="#173D58"/>
  <path d="M120 185 Q200 215 280 185" stroke="#173D58" stroke-width="5" stroke-linecap="round" fill="none"/>
  <circle cx="150" cy="120" r="3" fill="#F2E8D5" opacity="0.7"/>
  <text x="292" y="70" font-family="Fraunces, serif" font-size="30" fill="#F2E8D5" opacity="0.85">Z</text>
  <text x="318" y="48" font-family="Fraunces, serif" font-size="22" fill="#F2E8D5" opacity="0.6">z</text>
</svg>
