<svg xmlns="http://www.w3.org/2000/svg" viewBox="0 0 200 160" fill="none">
  <ellipse cx="100" cy="120" rx="88" ry="32" fill="#173D58"/>
  <path d="M20 100 C20 40 60 12 100 12 C140 12 180 40 180 100 C180 130 150 148 100 148 C50 148 20 130 20 100Z" fill="#3F7FA6"/>
  <path d="M20 100 C20 130 50 148 100 148 C150 148 180 130 180 100 C180 118 145 134 100 134 C55 134 20 118 20 100Z" fill="#F2E8D5"/>
  <circle cx="70" cy="72" r="4" fill="#173D58"/>
  <circle cx="130" cy="72" r="4" fill="#173D58"/>
  <path d="M60 90 Q100 106 140 90" stroke="#173D58" stroke-width="3" stroke-linecap="round" fill="none"/>
</svg>
